<?xml version="1.0" standalone="no"?>
<!DOCTYPE svg PUBLIC "-//W3C//DTD SVG 20010904//EN"
 "http://www.w3.org/TR/2001/REC-SVG-20010904/DTD/svg10.dtd">
<svg version="1.0" xmlns="http://www.w3.org/2000/svg"
 width="528.000000pt" height="528.000000pt" viewBox="0 0 528.000000 528.000000"
 preserveAspectRatio="xMidYMid meet">
<metadata>
Created by potrace 1.11, written by Peter Selinger 2001-2013
</metadata>
<g transform="translate(0.000000,528.000000) scale(0.100000,-0.100000)"
fill="#000000" stroke="none">
<path d="M0 2640 l0 -2640 2640 0 2640 0 0 2640 0 2640 -2640 0 -2640 0 0
-2640z m1892 1085 c275 -41 457 -171 541 -385 72 -185 63 -439 -23 -609 -36
-72 -149 -195 -226 -246 l-54 -36 152 -302 c83 -166 181 -366 219 -445 l68
-142 -271 2 -270 3 -193 395 -192 395 -147 3 -146 3 0 -401 0 -400 -245 0
-245 0 0 1090 0 1090 468 0 c358 0 490 -4 564 -15z m1873 5 c202 -23 338 -82
450 -194 113 -114 158 -229 157 -400 -1 -220 -107 -368 -308 -429 -41 -12 -74
-25 -74 -29 0 -4 25 -12 55 -18 178 -37 319 -187 359 -383 68 -327 -112 -599
-454 -688 -82 -22 -105 -23 -632 -26 l-548 -4 0 1090 0 1091 453 0 c248 0 493
-5 542 -10z"/>
<path d="M1352 3048 l3 -283 155 -3 c171 -3 293 9 343 34 99 50 141 134 135
267 -4 101 -31 163 -91 207 -71 52 -118 60 -344 60 l-203 0 2 -282z"/>
<path d="M3270 3080 l0 -252 203 5 c149 3 216 9 254 21 101 32 154 103 155
210 1 91 -17 144 -66 191 -63 61 -92 68 -333 72 l-213 5 0 -252z"/>
<path d="M3270 2231 l0 -261 223 0 c267 0 309 8 372 74 113 117 76 342 -68
419 -40 21 -56 22 -284 25 l-243 3 0 -260z"/>
</g>
</svg>
